# MagicaVoxel @ Ephtracy

# group
o 

# material
mtllib witch.vox.mtl
usemtl palette

# normals
vn -1 0 0
vn 1 0 0
vn 0 0 1
vn 0 0 -1
vn 0 -1 0
vn 0 1 0

# texcoords
vt 0.146484 0.5
vt 0.275391 0.5
vt 0.958984 0.5
vt 0.994141 0.5

# verts
v -0.6 0.6 -2.98023e-08
v -0.6 0.6 -0.2
v -0.6 1.2 -2.98023e-08
v -0.6 1.2 -0.2
v -0.6 1.3 -2.98023e-08
v -0.6 1.3 -0.2
v -0.6 1.9 0.2
v -0.6 1.9 -0.4
v -0.6 2 0.2
v -0.6 2 -0.4
v -0.5 0.5 0.1
v -0.5 0.5 -0.3
v -0.5 0.6 -2.98023e-08
v -0.5 0.6 -0.2
v -0.5 1.2 -2.98023e-08
v -0.5 1.2 -0.2
v -0.5 1.3 0.1
v -0.5 1.3 -2.98023e-08
v -0.5 1.3 -0.2
v -0.5 1.3 -0.3
v -0.5 1.5 -2.98023e-08
v -0.5 1.5 -0.4
v -0.5 1.6 0.2
v -0.5 1.6 -2.98023e-08
v -0.5 1.8 0.2
v -0.5 1.8 0.1
v -0.5 1.9 0.3
v -0.5 1.9 0.2
v -0.5 1.9 0.1
v -0.5 1.9 -0.4
v -0.5 1.9 -0.5
v -0.5 2 0.3
v -0.5 2 0.2
v -0.5 2 -0.4
v -0.5 2 -0.5
v -0.4 0 0.1
v -0.4 0 -0.2
v -0.4 0.1 0.1
v -0.4 0.1 -2.98023e-08
v -0.4 0.2 -2.98023e-08
v -0.4 0.2 -0.2
v -0.4 0.3 -2.98023e-08
v -0.4 0.3 -0.2
v -0.4 0.5 -2.98023e-08
v -0.4 0.5 -0.2
v -0.4 1.4 0.1
v -0.4 1.4 -0.3
v -0.4 1.5 -2.98023e-08
v -0.4 1.5 -0.3
v -0.4 1.6 0.1
v -0.4 1.6 -2.98023e-08
v -0.4 1.8 0.2
v -0.4 1.8 0.1
v -0.4 1.9 0.2
v -0.4 1.9 0.1
v -0.4 2 0.1
v -0.4 2 -0.3
v -0.4 2.2 0.1
v -0.4 2.2 -0.3
v -0.4 2.3 -2.98023e-08
v -0.4 2.3 -0.2
v -0.4 2.4 -2.98023e-08
v -0.4 2.4 -0.2
v -0.3 1.3 -2.98023e-08
v -0.3 1.3 -0.2
v -0.3 1.4 -2.98023e-08
v -0.3 1.4 -0.2
v -0.3 2.2 -2.98023e-08
v -0.3 2.2 -0.2
v -0.3 2.3 -2.98023e-08
v -0.3 2.3 -0.2
v -0.0999999 0 0.1
v -0.0999999 0 -0.2
v -0.0999999 0.1 0.1
v -0.0999999 0.1 -2.98023e-08
v -0.0999999 0.2 -2.98023e-08
v -0.0999999 0.2 -0.2
v -0.0999999 0.3 -2.98023e-08
v -0.0999999 0.3 -0.2
v -0.0999999 0.5 -2.98023e-08
v -0.0999999 0.5 -0.2
v 5.96046e-08 1.7 0.2
v 5.96046e-08 1.7 0.1
v 5.96046e-08 1.8 0.2
v 5.96046e-08 1.8 0.1
v 0.1 1.6 0.2
v 0.1 1.6 0.1
v 0.1 1.7 0.2
v 0.1 1.7 0.1
v -0.4 1.6 0.2
v -0.4 1.6 0.1
v -0.4 1.7 0.2
v -0.4 1.7 0.1
v -0.3 1.7 0.2
v -0.3 1.7 0.1
v -0.3 1.8 0.2
v -0.3 1.8 0.1
v -0.2 0 0.1
v -0.2 0 -0.2
v -0.2 0.1 0.1
v -0.2 0.1 -2.98023e-08
v -0.2 0.2 -2.98023e-08
v -0.2 0.2 -0.2
v -0.2 0.3 -2.98023e-08
v -0.2 0.3 -0.2
v -0.2 0.5 -2.98023e-08
v -0.2 0.5 -0.2
v -0.0999999 2.3 -2.98023e-08
v -0.0999999 2.3 -0.2
v -0.0999999 2.4 -2.98023e-08
v -0.0999999 2.4 -0.2
v 5.96046e-08 1.3 -2.98023e-08
v 5.96046e-08 1.3 -0.2
v 5.96046e-08 1.4 -2.98023e-08
v 5.96046e-08 1.4 -0.2
v 5.96046e-08 2.2 -2.98023e-08
v 5.96046e-08 2.2 -0.2
v 5.96046e-08 2.3 -2.98023e-08
v 5.96046e-08 2.3 -0.2
v 0.1 0 0.1
v 0.1 0 -0.2
v 0.1 0.1 0.1
v 0.1 0.1 -2.98023e-08
v 0.1 0.2 -2.98023e-08
v 0.1 0.2 -0.2
v 0.1 0.3 -2.98023e-08
v 0.1 0.3 -0.2
v 0.1 0.5 -2.98023e-08
v 0.1 0.5 -0.2
v 0.1 1.4 0.1
v 0.1 1.4 -0.3
v 0.1 1.5 -2.98023e-08
v 0.1 1.5 -0.3
v 0.1 1.6 0.1
v 0.1 1.6 -2.98023e-08
v 0.1 1.8 0.2
v 0.1 1.8 0.1
v 0.1 1.9 0.2
v 0.1 1.9 0.1
v 0.1 2 0.1
v 0.1 2 -0.3
v 0.1 2.2 0.1
v 0.1 2.2 -0.3
v 0.2 0.5 0.1
v 0.2 0.5 -0.3
v 0.2 0.6 -2.98023e-08
v 0.2 0.6 -0.2
v 0.2 1.2 -2.98023e-08
v 0.2 1.2 -0.2
v 0.2 1.3 0.1
v 0.2 1.3 -2.98023e-08
v 0.2 1.3 -0.2
v 0.2 1.3 -0.3
v 0.2 1.5 -2.98023e-08
v 0.2 1.5 -0.4
v 0.2 1.6 0.2
v 0.2 1.6 -2.98023e-08
v 0.2 1.8 0.2
v 0.2 1.8 0.1
v 0.2 1.9 0.3
v 0.2 1.9 0.2
v 0.2 1.9 0.1
v 0.2 1.9 -0.4
v 0.2 1.9 -0.5
v 0.2 2 0.3
v 0.2 2 0.2
v 0.2 2 -0.4
v 0.2 2 -0.5
v 0.3 0.6 -2.98023e-08
v 0.3 0.6 -0.2
v 0.3 1.2 -2.98023e-08
v 0.3 1.2 -0.2
v 0.3 1.3 -2.98023e-08
v 0.3 1.3 -0.2
v 0.3 1.9 0.2
v 0.3 1.9 -0.4
v 0.3 2 0.2
v 0.3 2 -0.4
v -0.5 1.9 0.3
v -0.5 2 0.3
v 0.2 1.9 0.3
v 0.2 2 0.3
v -0.6 1.9 0.2
v -0.6 2 0.2
v -0.5 1.6 0.2
v -0.5 1.8 0.2
v -0.5 1.9 0.2
v -0.5 2 0.2
v -0.4 1.6 0.2
v -0.4 1.7 0.2
v -0.4 1.8 0.2
v -0.4 1.9 0.2
v -0.3 1.7 0.2
v -0.3 1.8 0.2
v 5.96046e-08 1.7 0.2
v 5.96046e-08 1.8 0.2
v 0.1 1.6 0.2
v 0.1 1.7 0.2
v 0.1 1.8 0.2
v 0.1 1.9 0.2
v 0.2 1.6 0.2
v 0.2 1.8 0.2
v 0.2 1.9 0.2
v 0.2 2 0.2
v 0.3 1.9 0.2
v 0.3 2 0.2
v -0.5 0.5 0.1
v -0.5 1.3 0.1
v -0.5 1.8 0.1
v -0.5 1.9 0.1
v -0.4 0 0.1
v -0.4 0.1 0.1
v -0.4 1.4 0.1
v -0.4 1.6 0.1
v -0.4 1.7 0.1
v -0.4 1.8 0.1
v -0.4 1.9 0.1
v -0.4 2 0.1
v -0.4 2.2 0.1
v -0.3 1.6 0.1
v -0.3 1.7 0.1
v -0.3 1.8 0.1
v -0.2 0 0.1
v -0.2 0.1 0.1
v -0.2 1.6 0.1
v -0.2 1.8 0.1
v -0.0999999 0 0.1
v -0.0999999 0.1 0.1
v -0.0999999 1.6 0.1
v -0.0999999 1.8 0.1
v 5.96046e-08 1.6 0.1
v 5.96046e-08 1.7 0.1
v 5.96046e-08 1.8 0.1
v 0.1 0 0.1
v 0.1 0.1 0.1
v 0.1 1.4 0.1
v 0.1 1.6 0.1
v 0.1 1.7 0.1
v 0.1 1.8 0.1
v 0.1 1.9 0.1
v 0.1 2 0.1
v 0.1 2.2 0.1
v 0.2 0.5 0.1
v 0.2 1.3 0.1
v 0.2 1.8 0.1
v 0.2 1.9 0.1
v -0.6 0.6 -2.98023e-08
v -0.6 1.2 -2.98023e-08
v -0.6 1.3 -2.98023e-08
v -0.5 0.6 -2.98023e-08
v -0.5 1.2 -2.98023e-08
v -0.5 1.3 -2.98023e-08
v -0.5 1.5 -2.98023e-08
v -0.5 1.6 -2.98023e-08
v -0.4 0.1 -2.98023e-08
v -0.4 0.2 -2.98023e-08
v -0.4 0.3 -2.98023e-08
v -0.4 0.5 -2.98023e-08
v -0.4 1.5 -2.98023e-08
v -0.4 1.6 -2.98023e-08
v -0.4 2.3 -2.98023e-08
v -0.4 2.4 -2.98023e-08
v -0.3 1.3 -2.98023e-08
v -0.3 1.4 -2.98023e-08
v -0.3 2.2 -2.98023e-08
v -0.3 2.3 -2.98023e-08
v -0.2 0.1 -2.98023e-08
v -0.2 0.2 -2.98023e-08
v -0.2 0.3 -2.98023e-08
v -0.2 0.5 -2.98023e-08
v -0.0999999 0.1 -2.98023e-08
v -0.0999999 0.2 -2.98023e-08
v -0.0999999 0.3 -2.98023e-08
v -0.0999999 0.5 -2.98023e-08
v -0.0999999 2.3 -2.98023e-08
v -0.0999999 2.4 -2.98023e-08
v 5.96046e-08 1.3 -2.98023e-08
v 5.96046e-08 1.4 -2.98023e-08
v 5.96046e-08 2.2 -2.98023e-08
v 5.96046e-08 2.3 -2.98023e-08
v 0.1 0.1 -2.98023e-08
v 0.1 0.2 -2.98023e-08
v 0.1 0.3 -2.98023e-08
v 0.1 0.5 -2.98023e-08
v 0.1 1.5 -2.98023e-08
v 0.1 1.6 -2.98023e-08
v 0.2 0.6 -2.98023e-08
v 0.2 1.2 -2.98023e-08
v 0.2 1.3 -2.98023e-08
v 0.2 1.5 -2.98023e-08
v 0.2 1.6 -2.98023e-08
v 0.3 0.6 -2.98023e-08
v 0.3 1.2 -2.98023e-08
v 0.3 1.3 -2.98023e-08
v -0.6 0.6 -0.2
v -0.6 1.2 -0.2
v -0.6 1.3 -0.2
v -0.5 0.6 -0.2
v -0.5 1.2 -0.2
v -0.5 1.3 -0.2
v -0.4 0 -0.2
v -0.4 0.2 -0.2
v -0.4 0.3 -0.2
v -0.4 0.5 -0.2
v -0.4 2.3 -0.2
v -0.4 2.4 -0.2
v -0.3 1.3 -0.2
v -0.3 1.4 -0.2
v -0.3 2.2 -0.2
v -0.3 2.3 -0.2
v -0.2 0 -0.2
v -0.2 0.2 -0.2
v -0.2 0.3 -0.2
v -0.2 0.5 -0.2
v -0.0999999 0 -0.2
v -0.0999999 0.2 -0.2
v -0.0999999 0.3 -0.2
v -0.0999999 0.5 -0.2
v -0.0999999 2.3 -0.2
v -0.0999999 2.4 -0.2
v 5.96046e-08 1.3 -0.2
v 5.96046e-08 1.4 -0.2
v 5.96046e-08 2.2 -0.2
v 5.96046e-08 2.3 -0.2
v 0.1 0 -0.2
v 0.1 0.2 -0.2
v 0.1 0.3 -0.2
v 0.1 0.5 -0.2
v 0.2 0.6 -0.2
v 0.2 1.2 -0.2
v 0.2 1.3 -0.2
v 0.3 0.6 -0.2
v 0.3 1.2 -0.2
v 0.3 1.3 -0.2
v -0.5 0.5 -0.3
v -0.5 1.3 -0.3
v -0.4 1.4 -0.3
v -0.4 1.5 -0.3
v -0.4 2 -0.3
v -0.4 2.2 -0.3
v 0.1 1.4 -0.3
v 0.1 1.5 -0.3
v 0.1 2 -0.3
v 0.1 2.2 -0.3
v 0.2 0.5 -0.3
v 0.2 1.3 -0.3
v -0.6 1.9 -0.4
v -0.6 2 -0.4
v -0.5 1.5 -0.4
v -0.5 1.9 -0.4
v -0.5 2 -0.4
v 0.2 1.5 -0.4
v 0.2 1.9 -0.4
v 0.2 2 -0.4
v 0.3 1.9 -0.4
v 0.3 2 -0.4
v -0.5 1.9 -0.5
v -0.5 2 -0.5
v 0.2 1.9 -0.5
v 0.2 2 -0.5
v -0.4 0 0.1
v -0.2 0 0.1
v -0.0999999 0 0.1
v 0.1 0 0.1
v -0.4 0 -0.2
v -0.2 0 -0.2
v -0.0999999 0 -0.2
v 0.1 0 -0.2
v -0.5 0.5 0.1
v 0.2 0.5 0.1
v -0.4 0.5 -2.98023e-08
v -0.2 0.5 -2.98023e-08
v -0.0999999 0.5 -2.98023e-08
v 0.1 0.5 -2.98023e-08
v -0.4 0.5 -0.2
v -0.2 0.5 -0.2
v -0.0999999 0.5 -0.2
v 0.1 0.5 -0.2
v -0.5 0.5 -0.3
v 0.2 0.5 -0.3
v -0.6 0.6 -2.98023e-08
v -0.5 0.6 -2.98023e-08
v 0.2 0.6 -2.98023e-08
v 0.3 0.6 -2.98023e-08
v -0.6 0.6 -0.2
v -0.5 0.6 -0.2
v 0.2 0.6 -0.2
v 0.3 0.6 -0.2
v -0.4 1.4 0.1
v 0.1 1.4 0.1
v -0.3 1.4 -2.98023e-08
v 5.96046e-08 1.4 -2.98023e-08
v -0.3 1.4 -0.2
v 5.96046e-08 1.4 -0.2
v -0.4 1.4 -0.3
v 0.1 1.4 -0.3
v -0.5 1.5 -2.98023e-08
v -0.4 1.5 -2.98023e-08
v 0.1 1.5 -2.98023e-08
v 0.2 1.5 -2.98023e-08
v -0.4 1.5 -0.3
v 0.1 1.5 -0.3
v -0.5 1.5 -0.4
v 0.2 1.5 -0.4
v -0.5 1.6 0.2
v -0.4 1.6 0.2
v 0.1 1.6 0.2
v 0.2 1.6 0.2
v -0.4 1.6 0.1
v 0.1 1.6 0.1
v -0.5 1.6 -2.98023e-08
v -0.4 1.6 -2.98023e-08
v 0.1 1.6 -2.98023e-08
v 0.2 1.6 -2.98023e-08
v -0.4 1.7 0.2
v -0.3 1.7 0.2
v 5.96046e-08 1.7 0.2
v 0.1 1.7 0.2
v -0.4 1.7 0.1
v -0.3 1.7 0.1
v 5.96046e-08 1.7 0.1
v 0.1 1.7 0.1
v -0.3 1.8 0.2
v 5.96046e-08 1.8 0.2
v -0.3 1.8 0.1
v -0.2 1.8 0.1
v -0.0999999 1.8 0.1
v 5.96046e-08 1.8 0.1
v -0.5 1.9 0.3
v 0.2 1.9 0.3
v -0.6 1.9 0.2
v -0.5 1.9 0.2
v -0.4 1.9 0.2
v 0.1 1.9 0.2
v 0.2 1.9 0.2
v 0.3 1.9 0.2
v -0.5 1.9 0.1
v -0.4 1.9 0.1
v 0.1 1.9 0.1
v 0.2 1.9 0.1
v -0.6 1.9 -0.4
v -0.5 1.9 -0.4
v 0.2 1.9 -0.4
v 0.3 1.9 -0.4
v -0.5 1.9 -0.5
v 0.2 1.9 -0.5
v -0.4 2.3 -2.98023e-08
v -0.3 2.3 -2.98023e-08
v -0.4 2.3 -0.2
v -0.3 2.3 -0.2
v -0.4 0.1 0.1
v -0.2 0.1 0.1
v -0.0999999 0.1 0.1
v 0.1 0.1 0.1
v -0.4 0.1 -2.98023e-08
v -0.2 0.1 -2.98023e-08
v -0.0999999 0.1 -2.98023e-08
v 0.1 0.1 -2.98023e-08
v -0.5 1.3 0.1
v 0.2 1.3 0.1
v -0.6 1.3 -2.98023e-08
v -0.5 1.3 -2.98023e-08
v -0.3 1.3 -2.98023e-08
v 5.96046e-08 1.3 -2.98023e-08
v 0.2 1.3 -2.98023e-08
v 0.3 1.3 -2.98023e-08
v -0.6 1.3 -0.2
v -0.5 1.3 -0.2
v -0.3 1.3 -0.2
v 5.96046e-08 1.3 -0.2
v 0.2 1.3 -0.2
v 0.3 1.3 -0.2
v -0.5 1.3 -0.3
v 0.2 1.3 -0.3
v -0.5 1.8 0.2
v -0.4 1.8 0.2
v 0.1 1.8 0.2
v 0.2 1.8 0.2
v -0.5 1.8 0.1
v -0.4 1.8 0.1
v 0.1 1.8 0.1
v 0.2 1.8 0.1
v -0.5 2 0.3
v 0.2 2 0.3
v -0.6 2 0.2
v -0.5 2 0.2
v 0.2 2 0.2
v 0.3 2 0.2
v -0.4 2 0.1
v 0.1 2 0.1
v -0.4 2 -0.3
v 0.1 2 -0.3
v -0.6 2 -0.4
v -0.5 2 -0.4
v 0.2 2 -0.4
v 0.3 2 -0.4
v -0.5 2 -0.5
v 0.2 2 -0.5
v -0.4 2.2 0.1
v 0.1 2.2 0.1
v -0.3 2.2 -2.98023e-08
v 5.96046e-08 2.2 -2.98023e-08
v -0.3 2.2 -0.2
v 5.96046e-08 2.2 -0.2
v -0.4 2.2 -0.3
v 0.1 2.2 -0.3
v -0.0999999 2.3 -2.98023e-08
v 5.96046e-08 2.3 -2.98023e-08
v -0.0999999 2.3 -0.2
v 5.96046e-08 2.3 -0.2
v -0.4 2.4 -2.98023e-08
v -0.0999999 2.4 -2.98023e-08
v -0.4 2.4 -0.2
v -0.0999999 2.4 -0.2

# faces
f 3/2/1 2/2/1 1/2/1
f 4/2/1 2/2/1 3/2/1
f 5/4/1 4/4/1 3/4/1
f 6/4/1 4/4/1 5/4/1
f 9/4/1 8/4/1 7/4/1
f 10/4/1 8/4/1 9/4/1
f 13/4/1 12/4/1 11/4/1
f 14/4/1 12/4/1 13/4/1
f 15/4/1 13/4/1 11/4/1
f 16/4/1 12/4/1 14/4/1
f 17/4/1 15/4/1 11/4/1
f 18/4/1 15/4/1 17/4/1
f 19/4/1 12/4/1 16/4/1
f 20/4/1 12/4/1 19/4/1
f 24/1/1 22/1/1 21/1/1
f 25/1/1 24/1/1 23/1/1
f 26/1/1 24/1/1 25/1/1
f 29/1/1 24/1/1 26/1/1
f 30/1/1 22/1/1 24/1/1
f 30/1/1 24/1/1 29/1/1
f 32/4/1 28/4/1 27/4/1
f 33/4/1 28/4/1 32/4/1
f 34/4/1 31/4/1 30/4/1
f 35/4/1 31/4/1 34/4/1
f 38/4/1 37/4/1 36/4/1
f 39/4/1 37/4/1 38/4/1
f 40/4/1 37/4/1 39/4/1
f 41/4/1 37/4/1 40/4/1
f 42/3/1 41/3/1 40/3/1
f 43/3/1 41/3/1 42/3/1
f 44/2/1 43/2/1 42/2/1
f 45/2/1 43/2/1 44/2/1
f 48/2/1 47/2/1 46/2/1
f 49/2/1 47/2/1 48/2/1
f 50/2/1 48/2/1 46/2/1
f 51/2/1 48/2/1 50/2/1
f 54/1/1 53/1/1 52/1/1
f 55/1/1 53/1/1 54/1/1
f 58/4/1 57/4/1 56/4/1
f 59/4/1 57/4/1 58/4/1
f 62/4/1 61/4/1 60/4/1
f 63/4/1 61/4/1 62/4/1
f 66/2/1 65/2/1 64/2/1
f 67/2/1 65/2/1 66/2/1
f 70/4/1 69/4/1 68/4/1
f 71/4/1 69/4/1 70/4/1
f 74/4/1 73/4/1 72/4/1
f 75/4/1 73/4/1 74/4/1
f 76/4/1 73/4/1 75/4/1
f 77/4/1 73/4/1 76/4/1
f 78/3/1 77/3/1 76/3/1
f 79/3/1 77/3/1 78/3/1
f 80/2/1 79/2/1 78/2/1
f 81/2/1 79/2/1 80/2/1
f 84/1/1 83/1/1 82/1/1
f 85/1/1 83/1/1 84/1/1
f 88/1/1 87/1/1 86/1/1
f 89/1/1 87/1/1 88/1/1
f 90/1/2 91/1/2 92/1/2
f 92/1/2 91/1/2 93/1/2
f 94/1/2 95/1/2 96/1/2
f 96/1/2 95/1/2 97/1/2
f 98/4/2 99/4/2 100/4/2
f 100/4/2 99/4/2 101/4/2
f 101/4/2 99/4/2 102/4/2
f 102/4/2 99/4/2 103/4/2
f 102/3/2 103/3/2 104/3/2
f 104/3/2 103/3/2 105/3/2
f 104/2/2 105/2/2 106/2/2
f 106/2/2 105/2/2 107/2/2
f 108/4/2 109/4/2 110/4/2
f 110/4/2 109/4/2 111/4/2
f 112/2/2 113/2/2 114/2/2
f 114/2/2 113/2/2 115/2/2
f 116/4/2 117/4/2 118/4/2
f 118/4/2 117/4/2 119/4/2
f 120/4/2 121/4/2 122/4/2
f 122/4/2 121/4/2 123/4/2
f 123/4/2 121/4/2 124/4/2
f 124/4/2 121/4/2 125/4/2
f 124/3/2 125/3/2 126/3/2
f 126/3/2 125/3/2 127/3/2
f 126/2/2 127/2/2 128/2/2
f 128/2/2 127/2/2 129/2/2
f 130/2/2 131/2/2 132/2/2
f 132/2/2 131/2/2 133/2/2
f 130/2/2 132/2/2 134/2/2
f 134/2/2 132/2/2 135/2/2
f 136/1/2 137/1/2 138/1/2
f 138/1/2 137/1/2 139/1/2
f 140/4/2 141/4/2 142/4/2
f 142/4/2 141/4/2 143/4/2
f 144/4/2 145/4/2 146/4/2
f 146/4/2 145/4/2 147/4/2
f 144/4/2 146/4/2 148/4/2
f 147/4/2 145/4/2 149/4/2
f 144/4/2 148/4/2 150/4/2
f 150/4/2 148/4/2 151/4/2
f 149/4/2 145/4/2 152/4/2
f 152/4/2 145/4/2 153/4/2
f 154/1/2 155/1/2 157/1/2
f 156/1/2 157/1/2 158/1/2
f 158/1/2 157/1/2 159/1/2
f 159/1/2 157/1/2 162/1/2
f 157/1/2 155/1/2 163/1/2
f 162/1/2 157/1/2 163/1/2
f 160/4/2 161/4/2 165/4/2
f 165/4/2 161/4/2 166/4/2
f 163/4/2 164/4/2 167/4/2
f 167/4/2 164/4/2 168/4/2
f 169/2/2 170/2/2 171/2/2
f 171/2/2 170/2/2 172/2/2
f 171/4/2 172/4/2 173/4/2
f 173/4/2 172/4/2 174/4/2
f 175/4/2 176/4/2 177/4/2
f 177/4/2 176/4/2 178/4/2
f 181/4/3 180/4/3 179/4/3
f 182/4/3 180/4/3 181/4/3
f 187/4/3 184/4/3 183/4/3
f 188/4/3 184/4/3 187/4/3
f 189/1/3 186/1/3 185/1/3
f 190/1/3 186/1/3 189/1/3
f 191/1/3 186/1/3 190/1/3
f 193/1/3 192/1/3 191/1/3
f 193/1/3 191/1/3 190/1/3
f 194/1/3 192/1/3 193/1/3
f 196/1/3 192/1/3 194/1/3
f 198/1/3 196/1/3 195/1/3
f 199/1/3 192/1/3 196/1/3
f 199/1/3 196/1/3 198/1/3
f 200/1/3 192/1/3 199/1/3
f 201/1/3 198/1/3 197/1/3
f 201/1/3 199/1/3 198/1/3
f 202/1/3 199/1/3 201/1/3
f 205/4/3 204/4/3 203/4/3
f 206/4/3 204/4/3 205/4/3
f 216/1/3 210/1/3 209/1/3
f 217/1/3 210/1/3 216/1/3
f 220/2/3 215/2/3 214/2/3
f 220/2/3 214/2/3 213/2/3
f 221/2/3 215/2/3 220/2/3
f 223/4/3 212/4/3 211/4/3
f 224/4/3 212/4/3 223/4/3
f 225/4/3 222/4/3 221/4/3
f 225/2/3 220/2/3 213/2/3
f 225/4/3 221/4/3 220/4/3
f 226/4/3 222/4/3 225/4/3
f 229/2/3 225/2/3 213/2/3
f 229/2/3 226/2/3 225/2/3
f 230/2/3 226/2/3 229/2/3
f 231/2/3 229/2/3 213/2/3
f 231/4/3 230/4/3 229/4/3
f 232/4/3 230/4/3 231/4/3
f 233/4/3 230/4/3 232/4/3
f 234/4/3 228/4/3 227/4/3
f 235/4/3 228/4/3 234/4/3
f 236/2/3 231/2/3 213/2/3
f 236/2/3 232/2/3 231/2/3
f 237/2/3 232/2/3 236/2/3
f 238/2/3 232/2/3 237/2/3
f 241/4/3 219/4/3 218/4/3
f 242/4/3 219/4/3 241/4/3
f 243/4/3 208/4/3 207/4/3
f 244/4/3 208/4/3 243/4/3
f 245/1/3 240/1/3 239/1/3
f 246/1/3 240/1/3 245/1/3
f 250/2/3 248/2/3 247/2/3
f 251/4/3 249/4/3 248/4/3
f 251/2/3 248/2/3 250/2/3
f 252/4/3 249/4/3 251/4/3
f 259/1/3 254/1/3 253/1/3
f 260/1/3 254/1/3 259/1/3
f 266/4/3 262/4/3 261/4/3
f 267/4/3 256/4/3 255/4/3
f 268/3/3 257/3/3 256/3/3
f 268/4/3 256/4/3 267/4/3
f 269/2/3 258/2/3 257/2/3
f 269/3/3 257/3/3 268/3/3
f 270/2/3 258/2/3 269/2/3
f 275/4/3 266/4/3 265/4/3
f 275/4/3 262/4/3 266/4/3
f 276/4/3 262/4/3 275/4/3
f 277/2/3 264/2/3 263/2/3
f 278/2/3 264/2/3 277/2/3
f 279/4/3 275/4/3 265/4/3
f 280/4/3 275/4/3 279/4/3
f 281/4/3 272/4/3 271/4/3
f 282/3/3 273/3/3 272/3/3
f 282/4/3 272/4/3 281/4/3
f 283/2/3 274/2/3 273/2/3
f 283/3/3 273/3/3 282/3/3
f 284/2/3 274/2/3 283/2/3
f 290/1/3 286/1/3 285/1/3
f 291/1/3 286/1/3 290/1/3
f 292/2/3 288/2/3 287/2/3
f 293/4/3 289/4/3 288/4/3
f 293/2/3 288/2/3 292/2/3
f 294/4/3 289/4/3 293/4/3
f 295/2/4 296/2/4 298/2/4
f 296/4/4 297/4/4 299/4/4
f 298/2/4 296/2/4 299/2/4
f 299/4/4 297/4/4 300/4/4
f 305/4/4 306/4/4 310/4/4
f 301/4/4 302/4/4 311/4/4
f 302/3/4 303/3/4 312/3/4
f 311/4/4 302/4/4 312/4/4
f 303/2/4 304/2/4 313/2/4
f 312/3/4 303/3/4 313/3/4
f 313/2/4 304/2/4 314/2/4
f 309/4/4 310/4/4 319/4/4
f 310/4/4 306/4/4 319/4/4
f 319/4/4 306/4/4 320/4/4
f 307/2/4 308/2/4 321/2/4
f 321/2/4 308/2/4 322/2/4
f 309/4/4 319/4/4 323/4/4
f 323/4/4 319/4/4 324/4/4
f 315/4/4 316/4/4 325/4/4
f 316/3/4 317/3/4 326/3/4
f 325/4/4 316/4/4 326/4/4
f 317/2/4 318/2/4 327/2/4
f 326/3/4 317/3/4 327/3/4
f 327/2/4 318/2/4 328/2/4
f 329/2/4 330/2/4 332/2/4
f 330/4/4 331/4/4 333/4/4
f 332/2/4 330/2/4 333/2/4
f 333/4/4 331/4/4 334/4/4
f 337/2/4 338/2/4 341/2/4
f 341/2/4 338/2/4 342/2/4
f 339/4/4 340/4/4 343/4/4
f 343/4/4 340/4/4 344/4/4
f 335/4/4 336/4/4 345/4/4
f 345/4/4 336/4/4 346/4/4
f 347/4/4 348/4/4 350/4/4
f 350/4/4 348/4/4 351/4/4
f 349/1/4 350/1/4 352/1/4
f 352/1/4 350/1/4 353/1/4
f 353/4/4 354/4/4 355/4/4
f 355/4/4 354/4/4 356/4/4
f 357/4/4 358/4/4 359/4/4
f 359/4/4 358/4/4 360/4/4
f 365/4/5 362/4/5 361/4/5
f 366/4/5 362/4/5 365/4/5
f 367/4/5 364/4/5 363/4/5
f 368/4/5 364/4/5 367/4/5
f 371/4/5 370/4/5 369/4/5
f 372/4/5 370/4/5 371/4/5
f 373/4/5 370/4/5 372/4/5
f 374/4/5 370/4/5 373/4/5
f 375/4/5 371/4/5 369/4/5
f 376/4/5 373/4/5 372/4/5
f 377/4/5 373/4/5 376/4/5
f 378/4/5 370/4/5 374/4/5
f 379/4/5 377/4/5 376/4/5
f 379/4/5 378/4/5 377/4/5
f 379/4/5 375/4/5 369/4/5
f 379/4/5 376/4/5 375/4/5
f 380/4/5 370/4/5 378/4/5
f 380/4/5 378/4/5 379/4/5
f 385/2/5 382/2/5 381/2/5
f 386/2/5 382/2/5 385/2/5
f 387/2/5 384/2/5 383/2/5
f 388/2/5 384/2/5 387/2/5
f 391/2/5 390/2/5 389/2/5
f 392/2/5 390/2/5 391/2/5
f 393/2/5 391/2/5 389/2/5
f 394/2/5 390/2/5 392/2/5
f 395/2/5 393/2/5 389/2/5
f 395/2/5 394/2/5 393/2/5
f 396/2/5 390/2/5 394/2/5
f 396/2/5 394/2/5 395/2/5
f 401/1/5 398/1/5 397/1/5
f 402/1/5 400/1/5 399/1/5
f 403/1/5 401/1/5 397/1/5
f 403/1/5 402/1/5 401/1/5
f 404/1/5 400/1/5 402/1/5
f 404/1/5 402/1/5 403/1/5
f 409/1/5 406/1/5 405/1/5
f 410/1/5 408/1/5 407/1/5
f 411/1/5 409/1/5 405/1/5
f 412/1/5 409/1/5 411/1/5
f 413/1/5 408/1/5 410/1/5
f 414/1/5 408/1/5 413/1/5
f 419/1/5 416/1/5 415/1/5
f 420/1/5 416/1/5 419/1/5
f 421/1/5 418/1/5 417/1/5
f 422/1/5 418/1/5 421/1/5
f 425/1/5 424/1/5 423/1/5
f 426/1/5 424/1/5 425/1/5
f 427/1/5 424/1/5 426/1/5
f 428/1/5 424/1/5 427/1/5
f 432/4/5 430/4/5 429/4/5
f 433/4/5 430/4/5 432/4/5
f 434/4/5 430/4/5 433/4/5
f 435/4/5 430/4/5 434/4/5
f 437/4/5 432/4/5 431/4/5
f 437/4/5 433/4/5 432/4/5
f 438/4/5 433/4/5 437/4/5
f 439/4/5 436/4/5 435/4/5
f 439/4/5 435/4/5 434/4/5
f 440/4/5 436/4/5 439/4/5
f 441/4/5 437/4/5 431/4/5
f 442/4/5 437/4/5 441/4/5
f 443/4/5 436/4/5 440/4/5
f 444/4/5 436/4/5 443/4/5
f 445/4/5 443/4/5 442/4/5
f 446/4/5 443/4/5 445/4/5
f 449/4/5 448/4/5 447/4/5
f 450/4/5 448/4/5 449/4/5
f 451/4/6 452/4/6 455/4/6
f 455/4/6 452/4/6 456/4/6
f 453/4/6 454/4/6 457/4/6
f 457/4/6 454/4/6 458/4/6
f 459/4/6 460/4/6 462/4/6
f 462/4/6 460/4/6 463/4/6
f 463/4/6 460/4/6 464/4/6
f 464/4/6 460/4/6 465/4/6
f 461/4/6 462/4/6 467/4/6
f 462/4/6 463/4/6 467/4/6
f 467/4/6 463/4/6 468/4/6
f 468/4/6 463/4/6 469/4/6
f 465/4/6 466/4/6 470/4/6
f 464/4/6 465/4/6 470/4/6
f 470/4/6 466/4/6 471/4/6
f 471/4/6 466/4/6 472/4/6
f 468/4/6 469/4/6 473/4/6
f 470/4/6 471/4/6 473/4/6
f 469/4/6 470/4/6 473/4/6
f 473/4/6 471/4/6 474/4/6
f 475/1/6 476/1/6 479/1/6
f 479/1/6 476/1/6 480/1/6
f 477/1/6 478/1/6 481/1/6
f 481/1/6 478/1/6 482/1/6
f 483/4/6 484/4/6 486/4/6
f 486/4/6 484/4/6 487/4/6
f 485/4/6 486/4/6 489/4/6
f 487/4/6 488/4/6 489/4/6
f 486/4/6 487/4/6 489/4/6
f 489/4/6 488/4/6 490/4/6
f 485/4/6 489/4/6 491/4/6
f 490/4/6 488/4/6 492/4/6
f 485/4/6 491/4/6 493/4/6
f 491/4/6 492/4/6 493/4/6
f 493/4/6 492/4/6 494/4/6
f 492/4/6 488/4/6 495/4/6
f 494/4/6 492/4/6 495/4/6
f 495/4/6 488/4/6 496/4/6
f 494/4/6 495/4/6 497/4/6
f 497/4/6 495/4/6 498/4/6
f 499/4/6 500/4/6 501/4/6
f 501/4/6 500/4/6 502/4/6
f 499/4/6 501/4/6 503/4/6
f 502/4/6 500/4/6 504/4/6
f 499/4/6 503/4/6 505/4/6
f 503/4/6 504/4/6 505/4/6
f 504/4/6 500/4/6 506/4/6
f 505/4/6 504/4/6 506/4/6
f 507/4/6 508/4/6 509/4/6
f 509/4/6 508/4/6 510/4/6
f 511/4/6 512/4/6 513/4/6
f 513/4/6 512/4/6 514/4/6
